<svg width="23" height="28" viewBox="0 0 23 28" fill="none" xmlns="http://www.w3.org/2000/svg">
<path d="M18.7468 26.5868C17.293 28.0484 15.7057 27.8177 14.1777 27.1253C12.5607 26.4175 11.0772 26.3868 9.37123 27.1253C7.23503 28.0792 6.10759 27.8023 4.8318 26.5868C-2.40757 18.8477 -1.33946 7.06212 6.879 6.63131C8.88169 6.73901 10.2762 7.76987 11.4481 7.86218C13.1986 7.49292 14.8749 6.43129 16.7441 6.56977C18.9842 6.7544 20.6753 7.67755 21.7879 9.33922C17.1595 12.2164 18.2573 18.54 22.5 20.3094C21.6544 22.6172 20.5566 24.9097 18.732 26.6022L18.7468 26.5868ZM11.2998 6.539C11.0772 3.10795 13.7623 0.276946 16.848 0C17.2782 3.96956 13.3766 6.92364 11.2998 6.539Z" fill="black"/>
</svg>
